<?xml version="1.0" standalone="no"?>
<!DOCTYPE svg PUBLIC "-//W3C//DTD SVG 20010904//EN"
 "http://www.w3.org/TR/2001/REC-SVG-20010904/DTD/svg10.dtd">
<svg version="1.0" xmlns="http://www.w3.org/2000/svg"
 width="512.000000pt" height="512.000000pt" viewBox="0 0 512.000000 512.000000"
 preserveAspectRatio="xMidYMid meet">

<g transform="translate(0.000000,512.000000) scale(0.100000,-0.100000)"
fill="#000000" stroke="none">
<path d="M2455 4079 c-130 -18 -318 -93 -435 -172 -244 -164 -419 -444 -461
-736 -14 -102 -7 -299 16 -391 82 -343 338 -637 658 -758 153 -58 259 -75 422
-69 149 6 236 23 362 73 361 143 611 471 664 871 12 90 4 253 -12 253 -5 0 -9
-8 -9 -17 0 -15 -2 -16 -10 -3 -7 12 -12 12 -34 0 -25 -13 -26 -17 -26 -110 0
-105 -12 -193 -36 -254 -17 -43 -51 -96 -62 -96 -4 0 -8 40 -10 88 -5 139 -60
371 -84 356 -7 -4 -8 -2 -4 5 9 14 -3 53 -14 46 -5 -3 -11 3 -14 13 -8 23 -37
24 -54 3 -11 -14 -11 -14 -6 2 3 9 1 17 -5 17 -6 0 -11 9 -11 20 0 11 -5 20
-11 20 -15 0 -9 -23 35 -140 19 -52 42 -131 51 -175 20 -98 29 -254 18 -315
-8 -42 -12 -47 -63 -72 -81 -40 -214 -75 -330 -88 -56 -6 -103 -10 -105 -8 -1
2 4 46 11 98 8 52 17 208 20 347 l7 252 51 6 c101 13 240 60 229 78 -3 6 -1 7
5 3 6 -4 21 -2 33 5 l22 12 -24 13 c-29 16 -21 18 16 4 15 -6 24 -6 20 -1 -3
5 -20 13 -38 17 -17 4 -26 9 -19 11 6 3 12 8 12 13 0 10 -44 0 -128 -29 -34
-12 -90 -22 -125 -24 l-62 -2 -8 105 c-4 58 -17 161 -28 228 -11 68 -19 125
-17 127 6 6 89 -62 156 -127 34 -34 62 -57 62 -52 0 6 -6 16 -12 22 -10 10
-10 14 0 21 10 6 6 12 -13 25 -26 17 -30 41 -7 41 7 0 12 5 11 10 0 6 -6 10
-12 9 -18 -1 -39 23 -27 31 6 3 10 1 10 -4 0 -6 5 -11 11 -11 8 0 7 5 -1 15
-7 9 -19 14 -26 11 -9 -3 -11 0 -7 11 5 13 2 15 -12 9 -11 -4 -16 -4 -12 0 4
4 -5 21 -20 37 l-28 29 68 -7 c49 -5 67 -3 67 5 0 7 -8 10 -20 7 -11 -3 -23
-1 -26 4 -3 5 6 9 20 9 14 0 28 5 32 12 5 8 0 9 -14 6 -12 -4 -22 -2 -22 2 0
5 7 10 15 12 35 7 -6 30 -64 35 -33 3 -61 9 -61 13 0 4 16 15 35 24 35 17 99
14 111 -5 3 -5 17 -8 32 -8 23 2 23 2 5 6 -14 3 -21 11 -20 23 1 10 5 16 9 14
4 -3 17 1 27 8 19 13 16 16 -37 45 -149 82 -427 122 -637 92z m199 -114 c9
-13 16 -26 16 -28 0 -5 -132 42 -139 49 -2 2 21 4 51 4 48 0 58 -3 72 -25z
m179 9 c20 -4 37 -9 37 -13 0 -7 -63 -51 -73 -51 -6 0 -37 53 -37 65 0 7 26 6
73 -1z m287 -14 c18 -12 2 -12 -25 0 -13 6 -15 9 -5 9 8 0 22 -4 30 -9z m-626
-75 c39 -8 73 -18 78 -23 5 -5 -27 -16 -69 -26 -103 -24 -232 -70 -315 -112
-37 -19 -70 -34 -73 -34 -12 0 -3 57 15 95 26 54 70 95 112 105 55 13 179 11
252 -5z m-526 -295 c-78 -63 -178 -163 -220 -219 -60 -81 -61 -81 -39 -24 58
147 115 237 220 346 l76 79 3 -74 3 -73 -43 -35z m611 93 c-51 -64 -153 -214
-205 -299 -10 -17 -15 -15 -61 19 -62 45 -163 153 -163 172 0 29 208 120 360
160 140 36 139 36 69 -52z m200 -83 c18 -103 41 -292 41 -341 0 -15 -7 -19
-39 -19 -70 0 -290 56 -315 80 -5 5 19 52 53 107 75 120 221 307 232 296 4 -4
17 -60 28 -123z m-691 -123 c36 -51 99 -110 167 -156 28 -19 52 -36 54 -37 2
-2 -26 -67 -61 -146 -70 -154 -110 -260 -155 -406 l-28 -93 -76 53 c-132 91
-222 185 -270 281 -28 53 -29 62 -18 95 46 140 148 287 273 393 39 32 73 59
78 59 4 0 20 -19 36 -43z m1137 -235 c-3 -3 -11 0 -18 7 -9 10 -8 11 6 5 10
-3 15 -9 12 -12z m-712 -47 c63 -21 145 -40 207 -47 l103 -12 -6 -230 c-4
-192 -27 -450 -42 -464 -1 -2 -56 4 -121 12 -147 20 -285 54 -402 101 l-90 36
24 89 c32 121 83 258 156 418 33 72 62 132 63 132 2 0 50 -16 108 -35z m-640
-548 c40 -29 93 -66 119 -81 l47 -27 -6 -137 c-3 -75 -8 -139 -10 -141 -7 -9
-144 133 -188 194 -72 102 -135 241 -154 342 l-8 43 64 -70 c35 -38 96 -93
136 -123z m362 -197 c108 -41 299 -87 418 -101 78 -9 97 -15 97 -28 0 -36 -65
-203 -93 -237 l-30 -36 -76 6 c-179 16 -359 81 -393 142 -10 17 -21 58 -24 91
-7 64 3 193 14 193 4 0 43 -14 87 -30z m1069 -80 c-44 -81 -130 -153 -257
-215 -89 -43 -262 -101 -274 -90 -2 1 6 19 16 41 21 43 71 197 71 218 0 9 26
15 90 19 107 8 221 30 310 62 36 12 67 21 68 19 2 -1 -9 -26 -24 -54z"/>
<path d="M3120 3876 c0 -2 7 -7 16 -10 8 -3 12 -2 9 4 -6 10 -25 14 -25 6z"/>
<path d="M3088 3843 c7 -3 16 -2 19 1 4 3 -2 6 -13 5 -11 0 -14 -3 -6 -6z"/>
<path d="M3040 3623 c0 -20 16 -23 36 -8 10 8 14 15 7 15 -6 0 -15 -5 -19 -11
-4 -8 -9 -7 -15 2 -6 10 -9 10 -9 2z"/>
<path d="M3085 3510 c-4 -6 1 -7 11 -3 14 5 16 3 10 -13 -5 -14 -4 -16 5 -7
12 12 5 33 -11 33 -5 0 -12 -4 -15 -10z"/>
<path d="M3120 3466 c0 -2 8 -10 18 -17 15 -13 16 -12 3 4 -13 16 -21 21 -21
13z"/>
<path d="M3300 3244 c0 -10 5 -26 10 -34 8 -11 9 -7 4 15 -8 37 -14 45 -14 19z"/>
<path d="M3360 3215 c0 -5 5 -17 10 -25 5 -8 10 -10 10 -5 0 6 -5 17 -10 25
-5 8 -10 11 -10 5z"/>
<path d="M3591 3144 c0 -11 3 -14 6 -6 3 7 2 16 -1 19 -3 4 -6 -2 -5 -13z"/>
<path d="M1817 1633 c-4 -8 136 -504 148 -523 3 -6 31 -10 60 -10 42 0 56 4
64 18 5 9 28 85 51 167 23 83 43 151 45 153 1 1 17 -50 34 -115 18 -65 39
-142 47 -170 l15 -53 60 0 c47 0 61 4 66 17 20 51 149 514 145 518 -3 3 -29 5
-59 5 -64 0 -56 16 -108 -210 -21 -91 -41 -168 -44 -172 -4 -4 -29 79 -57 185
l-51 192 -46 3 c-46 3 -46 3 -56 -35 -6 -21 -31 -110 -55 -198 -24 -88 -46
-153 -50 -145 -6 16 -86 364 -86 374 0 9 -118 7 -123 -1z"/>
<path d="M2620 1381 c0 -143 1 -264 3 -268 1 -5 57 -8 123 -7 139 1 192 19
238 79 77 101 67 292 -20 379 -51 51 -106 68 -231 74 l-113 5 0 -262z m194
160 c79 -19 126 -106 112 -207 -12 -93 -56 -136 -140 -138 l-51 -1 -3 178 -2
177 22 0 c13 0 40 -5 62 -9z"/>
<path d="M3102 1373 l3 -268 50 0 50 0 0 265 0 265 -53 3 -52 3 2 -268z"/>
<path d="M3190 986 l0 -64 -30 11 c-65 25 -124 -29 -124 -113 0 -87 65 -141
130 -107 25 13 31 13 51 0 12 -8 27 -12 33 -8 13 8 13 35 0 35 -6 0 -10 58
-10 155 l0 155 -25 0 c-24 0 -25 -2 -25 -64z m-19 -96 c28 -15 27 -109 -1
-135 -26 -23 -68 -13 -80 21 -31 81 16 148 81 114z"/>
<path d="M1442 873 l3 -166 75 2 c89 3 116 14 147 60 29 43 32 138 5 191 -24
50 -88 80 -169 80 l-63 0 2 -167z m142 113 c63 -26 83 -154 31 -210 -20 -21
-33 -26 -75 -26 l-50 0 0 125 0 125 30 0 c17 0 45 -6 64 -14z"/>
<path d="M2430 873 c0 -162 1 -169 20 -169 18 0 20 7 20 73 l0 73 65 0 c58 0
65 2 65 20 0 18 -7 20 -65 20 l-65 0 0 55 0 55 81 0 c71 0 80 2 77 18 -3 14
-17 17 -101 20 l-97 3 0 -168z"/>
<path d="M2670 1026 c-18 -22 -5 -48 22 -44 17 2 23 10 23 28 0 29 -26 38 -45
16z"/>
<path d="M2000 977 c0 -26 -5 -36 -20 -40 -11 -3 -20 -12 -20 -21 0 -9 8 -16
20 -16 18 0 20 -7 20 -73 0 -81 14 -111 56 -121 35 -9 87 12 80 31 -4 8 -6 17
-6 19 0 3 -9 0 -20 -6 -28 -15 -56 -4 -64 23 -3 12 -6 46 -6 75 l0 52 45 0
c38 0 45 3 45 20 0 17 -7 20 -46 20 -45 0 -45 0 -42 33 2 27 -1 33 -19 35 -20
3 -23 -1 -23 -31z"/>
<path d="M1780 928 c-22 -12 -50 -62 -39 -72 6 -6 38 -12 37 -6 -4 17 26 50
45 50 31 0 44 -11 52 -43 7 -26 6 -27 -36 -27 -74 0 -118 -34 -106 -82 10 -39
57 -55 105 -36 34 13 41 13 60 0 31 -20 53 -2 34 28 -6 11 -12 49 -12 84 0 46
-5 70 -18 86 -21 26 -87 36 -122 18z m90 -146 c0 -5 -9 -17 -19 -26 -26 -24
-65 -17 -69 12 -3 20 1 22 42 22 25 0 46 -4 46 -8z"/>
<path d="M2230 933 c-28 -11 -50 -36 -50 -60 0 -30 32 -31 45 0 20 44 85 29
85 -19 0 -21 -5 -24 -37 -25 -60 -2 -87 -13 -101 -42 -28 -58 44 -106 110 -73
17 9 34 12 37 7 3 -4 16 -11 28 -15 21 -7 21 -5 16 71 -7 110 -18 139 -55 152
-33 12 -54 13 -78 4z m68 -165 c-26 -40 -100 -34 -85 6 5 11 20 16 53 16 46 0
46 0 32 -22z"/>
<path d="M2670 838 c0 -57 4 -108 8 -114 4 -6 18 -15 31 -19 22 -7 23 -5 16
21 -5 16 -9 70 -11 119 -2 83 -4 90 -23 93 -20 3 -21 -1 -21 -100z"/>
<path d="M2773 923 c-4 -9 -1 -19 5 -21 8 -2 12 -34 12 -97 0 -83 2 -93 19
-98 11 -3 22 -2 25 1 3 3 6 40 6 83 0 82 12 109 50 109 21 0 52 -40 49 -62 -1
-7 -1 -36 0 -65 1 -42 5 -54 22 -64 30 -15 47 2 31 33 -6 13 -12 54 -14 92 -4
57 -8 72 -27 87 -28 22 -69 24 -97 5 -17 -12 -22 -12 -39 0 -25 18 -34 18 -42
-3z"/>
<path d="M3354 930 c-35 -14 -54 -50 -54 -103 0 -62 21 -102 62 -116 58 -20
140 13 119 48 -7 11 -13 11 -32 -3 -33 -22 -56 -20 -84 9 -45 44 -34 55 51 55
l77 0 -6 38 c-11 65 -71 97 -133 72z m84 -57 c14 -23 14 -23 -42 -23 -58 0
-60 3 -33 38 15 19 58 10 75 -15z"/>
<path d="M3530 921 c0 -11 5 -23 10 -26 6 -3 10 -46 10 -96 0 -81 2 -89 19
-89 17 0 19 9 23 81 3 66 7 83 23 95 10 8 27 12 36 9 18 -6 44 26 32 39 -11
11 -48 6 -71 -10 -20 -14 -24 -14 -38 0 -21 22 -44 20 -44 -3z"/>
</g>
</svg>
